<svg width="22" height="20" viewBox="0 0 27 25" fill="none" xmlns="http://www.w3.org/2000/svg">
<path fill-rule="evenodd" clip-rule="evenodd" d="M14.3021 18.897C12.0118 18.897 9.68506 17.5595 8.32712 15.7892C1.81217 15.7892 1.61523 24.9454 1.61523 24.9454H26.9873C26.9873 24.9454 27.4987 15.7485 20.1722 15.7485C18.8158 17.5407 16.5923 18.897 14.3021 18.897Z" fill="#025C91"/>
<path fill-rule="evenodd" clip-rule="evenodd" d="M19.7591 7.92021C19.7591 10.5546 17.3148 15.5921 14.2971 15.5921C11.2843 15.5921 8.83838 10.553 8.83838 7.92021C8.83838 5.2874 11.2827 3.1499 14.2971 3.1499C17.3148 3.15146 19.7591 5.28896 19.7591 7.92021Z" fill="#025C91"/>
<path fill-rule="evenodd" clip-rule="evenodd" d="M22.1954 5.64692C22.1954 5.15317 21.4966 4.75474 20.6294 4.75161V3.73442C20.6294 3.58286 20.6881 0.0344238 14.3161 0.0344238C7.94733 0.0344238 8.00609 3.58286 8.00609 3.73442V4.78755C7.99021 4.78755 7.9775 4.78286 7.96321 4.78286C7.1008 4.78286 6.40674 5.17505 6.40674 5.66099V9.96411C6.40674 10.4469 7.10239 10.8407 7.96321 10.8407C8.82403 10.8407 9.52286 10.4469 9.52286 9.96411V5.66099C9.52286 5.5938 9.47997 5.53286 9.45456 5.47036V4.29692C9.45456 4.18911 8.99715 1.51099 14.3161 1.51099C19.6367 1.51099 19.084 4.18911 19.084 4.29692V5.53286C19.0745 5.57192 19.0443 5.6063 19.0443 5.64692V10.0485C19.0443 10.5438 19.7479 10.9454 20.6199 10.9454C20.6389 10.9454 20.6532 10.9391 20.6723 10.9391V12.5469H19.1094V14.0625H22.2113L22.1954 5.64692Z" fill="#025C91"/>
</svg>
