<svg width="15" height="15" viewBox="0 0 15 15" fill="none" xmlns="http://www.w3.org/2000/svg">
<path d="M1.57125 11.3372H2.77228C2.85429 11.3372 2.93117 11.3738 2.98242 11.4384C3.10201 11.5866 3.23015 11.7297 3.36511 11.8657C3.91712 12.4298 4.57098 12.8794 5.29053 13.1895C6.036 13.511 6.83724 13.6759 7.64647 13.6744C8.46482 13.6744 9.25754 13.5105 10.0024 13.1895C10.722 12.8794 11.3758 12.4298 11.9278 11.8657C12.4808 11.3035 12.9218 10.6371 13.2263 9.9035C13.5423 9.14303 13.7012 8.33548 13.7012 7.50001C13.7012 6.66455 13.5406 5.85699 13.2263 5.09653C12.9222 4.36223 12.4848 3.70118 11.9278 3.13432C11.3709 2.56746 10.7234 2.12095 10.0024 1.81049C9.25754 1.48956 8.46482 1.32561 7.64647 1.32561C6.82813 1.32561 6.03541 1.48781 5.29053 1.81049C4.56957 2.12095 3.92207 2.56746 3.36511 3.13432C3.23015 3.27211 3.10372 3.41514 2.98242 3.56165C2.93117 3.62618 2.85258 3.66281 2.77228 3.66281H1.57125C1.46362 3.66281 1.39699 3.54072 1.45678 3.44828C2.76716 1.36921 5.05989 -0.00695033 7.66527 2.64046e-05C11.7587 0.0104915 15.0406 3.40293 14.9996 7.57676C14.9586 11.6843 11.6818 15 7.64647 15C5.04793 15 2.76545 13.6256 1.45678 11.5518C1.39869 11.4593 1.46362 11.3372 1.57125 11.3372ZM0.0524397 7.39013L2.47672 5.43665C2.56727 5.36339 2.69882 5.42967 2.69882 5.54653V6.87211H8.06334C8.13851 6.87211 8.20001 6.9349 8.20001 7.01164V7.98838C8.20001 8.06513 8.13851 8.12792 8.06334 8.12792H2.69882V9.4535C2.69882 9.57036 2.56556 9.63664 2.47672 9.56338L0.0524397 7.6099C0.0361042 7.59684 0.022893 7.58017 0.0138073 7.56113C0.00472164 7.54209 0 7.52119 0 7.50001C0 7.47884 0.00472164 7.45794 0.0138073 7.4389C0.022893 7.41986 0.0361042 7.40318 0.0524397 7.39013Z" fill="#055F8F"/>
</svg>
