<svg width="17" height="17" viewBox="0 0 17 17" fill="none" xmlns="http://www.w3.org/2000/svg">
<path d="M16.1847 10.6608L14.9657 9.59827C15.0234 9.23775 15.0532 8.86964 15.0532 8.50154C15.0532 8.13343 15.0234 7.76533 14.9657 7.40481L16.1847 6.34224C16.2766 6.26199 16.3424 6.1551 16.3734 6.0358C16.4043 5.91649 16.3988 5.79041 16.3578 5.67433L16.341 5.625C16.0054 4.66873 15.5029 3.78226 14.8577 3.00841L14.8242 2.96857C14.746 2.87474 14.6417 2.80729 14.525 2.77512C14.4084 2.74294 14.285 2.74754 14.171 2.78831L12.6579 3.33667C12.0996 2.8699 11.4762 2.50179 10.8024 2.24374L10.5102 0.630903C10.4882 0.509546 10.4305 0.397901 10.3447 0.310799C10.2589 0.223697 10.1492 0.165262 10.0301 0.143258L9.97984 0.13377C9.01022 -0.0445901 7.99034 -0.0445901 7.02072 0.13377L6.97047 0.143258C6.85135 0.165262 6.74162 0.223697 6.65586 0.310799C6.57009 0.397901 6.51235 0.509546 6.49031 0.630903L6.19626 2.25133C5.52792 2.50944 4.90554 2.87735 4.35379 3.34047L2.82956 2.78831C2.7156 2.74721 2.59207 2.74245 2.47539 2.77465C2.3587 2.80684 2.25439 2.87448 2.17632 2.96857L2.14282 3.00841C1.49841 3.78281 0.995975 4.66913 0.659536 5.625L0.642786 5.67433C0.559037 5.91152 0.627898 6.17716 0.815867 6.34224L2.04977 7.4162C1.99207 7.77292 1.96416 8.13723 1.96416 8.49964C1.96416 8.86395 1.99207 9.22826 2.04977 9.58309L0.815867 10.657C0.723921 10.7373 0.658115 10.8442 0.627198 10.9635C0.596281 11.0828 0.601718 11.2089 0.642786 11.325L0.659536 11.3743C0.996392 12.3306 1.49516 13.2129 2.14282 13.9909L2.17632 14.0307C2.25459 14.1245 2.3589 14.192 2.47551 14.2242C2.59212 14.2563 2.71556 14.2517 2.82956 14.211L4.35379 13.6588C4.90839 14.1237 5.52813 14.4918 6.19626 14.748L6.49031 16.3684C6.51235 16.4897 6.57009 16.6014 6.65586 16.6885C6.74162 16.7756 6.85135 16.834 6.97047 16.856L7.02072 16.8655C7.99925 17.0448 9.00131 17.0448 9.97984 16.8655L10.0301 16.856C10.1492 16.834 10.2589 16.7756 10.3447 16.6885C10.4305 16.6014 10.4882 16.4897 10.5102 16.3684L10.8024 14.7555C11.4759 14.4982 12.1029 14.1289 12.6579 13.6626L14.171 14.211C14.285 14.2521 14.4085 14.2568 14.5252 14.2246C14.6419 14.1924 14.7462 14.1248 14.8242 14.0307L14.8577 13.9909C15.5054 13.211 16.0042 12.3306 16.341 11.3743L16.3578 11.325C16.4415 11.0916 16.3727 10.8259 16.1847 10.6608ZM13.6443 7.62871C13.6908 7.91523 13.715 8.20933 13.715 8.50344C13.715 8.79754 13.6908 9.09165 13.6443 9.37816L13.5215 10.139L14.9117 11.3515C14.701 11.8465 14.4349 12.3151 14.1189 12.748L12.3918 12.1238L11.8074 12.6133C11.3626 12.9852 10.8676 13.2774 10.3316 13.4824L9.62251 13.7537L9.28938 15.5942C8.76375 15.6549 8.23308 15.6549 7.70746 15.5942L7.37432 13.7499L6.67083 13.4748C6.14043 13.2698 5.64724 12.9776 5.20616 12.6076L4.62178 12.1162L2.88353 12.7461C2.56715 12.3116 2.30287 11.843 2.09071 11.3496L3.49583 10.1258L3.37486 9.36678C3.33019 9.08406 3.306 8.79185 3.306 8.50344C3.306 8.21313 3.32833 7.92282 3.37486 7.64009L3.49583 6.88111L2.09071 5.65726C2.30101 5.16202 2.56715 4.69525 2.88353 4.26073L4.62178 4.89069L5.20616 4.39925C5.64724 4.02924 6.14043 3.73703 6.67083 3.53211L7.37618 3.26077L7.70932 1.41645C8.23228 1.35573 8.76641 1.35573 9.29124 1.41645L9.62437 3.25698L10.3334 3.52831C10.8676 3.73324 11.3645 4.02545 11.8093 4.39735L12.3937 4.88689L14.1208 4.26263C14.4371 4.69714 14.7014 5.16582 14.9136 5.65915L13.5233 6.87163L13.6443 7.62871ZM8.50214 4.97417C6.69317 4.97417 5.22663 6.46937 5.22663 8.31369C5.22663 10.158 6.69317 11.6532 8.50214 11.6532C10.3111 11.6532 11.7776 10.158 11.7776 8.31369C11.7776 6.46937 10.3111 4.97417 8.50214 4.97417ZM9.97612 9.81647C9.78279 10.0141 9.55304 10.1709 9.30008 10.2777C9.04712 10.3845 8.77594 10.4393 8.50214 10.4388C7.94568 10.4388 7.42271 10.2168 7.02816 9.81647C6.83428 9.61937 6.68054 9.38513 6.57578 9.12722C6.47101 8.86932 6.4173 8.59284 6.41773 8.31369C6.41773 7.74635 6.63547 7.21317 7.02816 6.81091C7.42271 6.40865 7.94568 6.18854 8.50214 6.18854C9.0586 6.18854 9.58157 6.40865 9.97612 6.81091C10.17 7.00801 10.3237 7.24225 10.4285 7.50016C10.5333 7.75806 10.587 8.03454 10.5866 8.31369C10.5866 8.88103 10.3688 9.41421 9.97612 9.81647Z" fill="#055F8F"/>
</svg>
